<svg xmlns="http://www.w3.org/2000/svg" viewBox="0 0 32 32" fill="none" aria-hidden="true">
  <defs>
    <linearGradient id="hubBg" x1="0" y1="0" x2="1" y2="1">
      <stop offset="0%" stop-color="#FFB088"/>
      <stop offset="100%" stop-color="#FF7A3D"/>
    </linearGradient>
  </defs>
  <rect width="32" height="32" rx="8" fill="url(#hubBg)"/>
  <g transform="translate(4 4)" fill="none" stroke="#fff" stroke-width="2" stroke-linecap="round" stroke-linejoin="round">
    <path d="m12 3-1.912 5.813a2 2 0 0 1-1.275 1.275L3 12l5.813 1.912a2 2 0 0 1 1.275 1.275L12 21l1.912-5.813a2 2 0 0 1 1.275-1.275L21 12l-5.813-1.912a2 2 0 0 1-1.275-1.275L12 3Z"/>
    <path d="M5 3v4"/>
    <path d="M19 17v4"/>
    <path d="M3 5h4"/>
    <path d="M17 19h4"/>
  </g>
</svg>
